HIERARCHY
ROOT Hips
{
	OFFSET 0.00000 0.00000 0.00000
	CHANNELS 6 Xposition Yposition Zposition Zrotation Yrotation Xrotation 
	JOINT LHipJoint
	{
		OFFSET 0 0 0
		CHANNELS 3 Zrotation Yrotation Xrotation
		JOINT LeftHip
		{
			OFFSET 1.17584 -1.63585 1.00361
			CHANNELS 3 Zrotation Yrotation Xrotation
			JOINT LeftKnee
			{
				OFFSET 2.23889 -6.15131 0.00000
				CHANNELS 3 Zrotation Yrotation Xrotation
				JOINT LeftAnkle
				{
					OFFSET 2.65161 -7.28525 0.00000
					CHANNELS 3 Zrotation Yrotation Xrotation
					JOINT LeftToe
					{
						OFFSET 0.24898 -0.68407 1.57235
						CHANNELS 3 Zrotation Yrotation Xrotation
						End Site
						{
							OFFSET 0.00000 -0.00000 0.85838
						}
					}
				}
			}
		}
	}
	JOINT RHipJoint
	{
		OFFSET 0 0 0
		CHANNELS 3 Zrotation Yrotation Xrotation
		JOINT RightHip
		{
			OFFSET -1.15592 -1.63585 1.00361
			CHANNELS 3 Zrotation Yrotation Xrotation
			JOINT RightKnee
			{
				OFFSET -2.34071 -6.43104 0.00000
				CHANNELS 3 Zrotation Yrotation Xrotation
				JOINT RightAnkle
				{
					OFFSET -2.59113 -7.11908 0.00000
					CHANNELS 3 Zrotation Yrotation Xrotation
					JOINT RightToe
					{
						OFFSET -0.17867 -0.49089 1.70981
						CHANNELS 3 Zrotation Yrotation Xrotation
						End Site
						{
							OFFSET -0.00000 -0.00000 0.89861
						}
					}
				}
			}
		}
	}
	JOINT lowerback
	{
		OFFSET 0 0 0
		CHANNELS 3 Zrotation Yrotation Xrotation
		JOINT Chest
		{
			OFFSET -0.02255 1.90764 -0.16605
			CHANNELS 3 Zrotation Yrotation Xrotation
			JOINT Chest2
			{
				OFFSET -0.00365 1.92150 -0.04898
				CHANNELS 3 Zrotation Yrotation Xrotation
				JOINT lowerneck
				{
					OFFSET 0 0 0
					CHANNELS 3 Zrotation Yrotation Xrotation
					JOINT Neck
					{
						OFFSET 0.00372 1.59170 0.08694
						CHANNELS 3 Zrotation Yrotation Xrotation
						JOINT Head
						{
							OFFSET 0.12558 1.58643 -0.08078
							CHANNELS 3 Zrotation Yrotation Xrotation
							End Site
							{
								OFFSET 0.04211 1.60835 -0.03803
							}
						}
					}
				}
				JOINT LeftCollar
				{
					OFFSET 0 0 0
					CHANNELS 3 Zrotation Yrotation Xrotation
					JOINT LeftShoulder
					{
						OFFSET 3.69324 0.96316 0.19077
CHANNELS 3 Zrotation Xrotation Yrotation
						JOINT LeftElbow
						{
OFFSET 0 -4.877960 -0.000000
CHANNELS 3 Zrotation Xrotation Yrotation
							JOINT LeftWrist
							{
OFFSET 0 -3.231690 0.000000
CHANNELS 3 Zrotation Xrotation Yrotation
								JOINT lhand
								{
									OFFSET 0 0 0
CHANNELS 3 Zrotation Xrotation Yrotation
									JOINT LFingers
									{
OFFSET 0 -0.731320 0.000000
CHANNELS 3 Zrotation Xrotation Yrotation
										End Site
										{
OFFSET 0 -0.589610 0.000000
										}
									}
								}
								JOINT LThumb
								{
OFFSET 0 0.000000 0.000000
CHANNELS 3 Zrotation Xrotation Yrotation
									End Site
									{
OFFSET 0 -0.598610 0.598610
									}
								}
							}
						}
					}
				}
				JOINT RightCollar
				{
					OFFSET 0 0 0
					CHANNELS 3 Zrotation Yrotation Xrotation
					JOINT RightShoulder
					{
						OFFSET -3.66103 0.75145 0.08281
CHANNELS 3 Zrotation Xrotation Yrotation
						JOINT RightElbow
						{
OFFSET 0 -4.914300 0.000000
CHANNELS 3 Zrotation Xrotation Yrotation
							JOINT RightWrist
							{
OFFSET 0 -3.290930 0.000000
CHANNELS 3 Zrotation Xrotation Yrotation
								JOINT rhand
								{
									OFFSET 0 0 0
CHANNELS 3 Zrotation Xrotation Yrotation
									JOINT RFingers
									{
OFFSET 0 -0.545120 0.000000
CHANNELS 3 Zrotation Xrotation Yrotation
										End Site
										{
OFFSET 0 -0.439490 0.000000
										}
									}
								}
								JOINT RThumb
								{
OFFSET 0 0.000000 0.000000
CHANNELS 3 Zrotation Xrotation Yrotation
									End Site
									{
OFFSET 0 -0.446200 0.446200
									}
								}
							}
						}
					}
				}
			}
		}
	}
}
MOTION
Frames: 5
Frame Time: 0.008333333333333333
13.400400 15.960900 1.300200 91.812000 -89.152000 -93.495700 0.000000 0.000000 0.000000 -11.109800 -0.516200 -14.763300 4.797800 13.152400 39.941800 2.603500 6.255100 -33.173400 3.222400 -11.046700 -32.437400 0.000000 0.000000 0.000000 12.097500 7.904300 -11.354300 -5.478400 -13.903100 42.850700 -1.843200 -9.049900 -30.251000 -0.041400 1.313900 -3.613000 0.048600 0.304800 -9.991700 -1.635600 0.528900 3.234300 -1.677900 0.307100 9.085100 -2.050400 -1.083400 2.216400 4.943000 -2.604400 16.378300 1.766300 -1.348600 4.623300 0.000000 -0.000000 0.000000 9.130700 -5.122400 -44.661100 29.066700 -40.079900 10.803700 32.505000 2.736000 24.175000 0.000000 0.000000 0.000000 -7.125000 0.000000 0.000000 1.907300 1.968000 1.841700 0.000000 -0.000000 0.000000 -4.458100 -5.164900 45.394400 -30.560400 -41.368900 -11.778200 -37.260400 32.908700 25.841400 0.000000 0.000000 0.000000 7.125000 0.000000 -0.000000 -9.129300 61.070900 3.591100
13.401539 15.961219 1.298960 93.481753 -89.264192 -95.144882 0.000000 0.000000 0.000000 -10.955868 -0.420634 -14.823315 4.802520 13.157880 39.962359 2.644993 5.954084 -33.256054 3.175523 -10.973904 -32.191853 0.000000 0.000000 0.000000 12.278813 8.035464 -11.302158 -5.481840 -13.906640 42.864760 -1.889489 -8.956991 -30.482384 -0.017004 0.839206 -2.306470 0.077587 0.299698 -9.991356 -1.553123 0.512362 3.296402 -1.609616 0.298753 9.151367 -1.974899 -1.072453 2.788560 4.644160 -2.419125 14.554816 1.836533 -1.285475 4.410115 0.000000 0.000000 0.000000 9.024897 -5.099415 -44.550100 29.234362 -40.228044 10.911748 32.787729 2.503815 24.257711 0.000000 0.000000 0.000000 -7.125000 0.000000 0.000000 2.062994 1.803131 1.998454 0.000000 0.000000 0.000000 -4.563751 -5.255183 45.477998 -30.658681 -41.451324 -11.843288 -37.631377 32.994561 25.726804 0.000000 0.000000 0.000000 7.125000 0.000000 0.000000 -9.622588 61.041580 3.780752
13.401520 15.962499 1.298001 93.654140 -89.302653 -95.271108 0.000000 0.000000 0.000000 -10.910879 -0.445432 -14.880219 4.803518 13.159058 39.966951 2.629882 6.028980 -33.207932 3.166377 -10.959596 -32.143807 0.000000 0.000000 0.000000 12.322119 8.077115 -11.344923 -5.482581 -13.907481 42.867926 -1.888436 -8.953889 -30.473679 -0.017682 0.858414 -2.359330 0.099125 0.288371 -9.990314 -1.526554 0.492380 3.312083 -1.597032 0.289676 9.167022 -1.898846 -1.016134 3.203622 4.660527 -2.261244 13.453876 1.823258 -1.200456 3.922285 0.000000 0.000000 0.000000 8.987427 -5.169276 -44.446693 29.224049 -40.218950 10.905073 32.512866 2.254890 24.473056 0.000000 0.000000 0.000000 -7.125000 0.000000 0.000000 1.859984 1.634790 1.807114 0.000000 0.000000 0.000000 -4.548687 -5.252353 45.415512 -30.691045 -41.478411 -11.864717 -37.660904 32.980997 25.692933 0.000000 0.000000 0.000000 7.125000 0.000000 0.000000 -9.663990 61.010914 3.789902
13.401520 15.963219 1.297361 93.241019 -89.382939 -94.824560 0.000000 0.000000 0.000000 -10.818433 -0.464365 -14.927563 4.806077 13.162096 39.978225 2.625169 6.049249 -33.191623 3.179232 -10.979716 -32.211431 0.000000 0.000000 0.000000 12.414251 8.087950 -11.373294 -5.481301 -13.906121 42.862565 -1.891479 -8.944449 -30.486738 -0.016001 0.816623 -2.244363 0.206484 0.302597 -9.935886 -1.522849 0.496210 3.293722 -1.652722 0.297426 9.116294 -1.815211 -0.971999 3.448135 4.659872 -2.143120 12.684871 1.804301 -1.136077 3.596130 0.000000 0.000000 0.000000 8.999938 -5.186254 -44.399478 29.221603 -40.216820 10.903495 32.122569 2.046856 24.695359 0.000000 0.000000 0.000000 -7.125000 0.000000 0.000000 1.586879 1.488590 1.545684 0.000000 0.000000 0.000000 -4.495313 -5.188351 45.346356 -30.723371 -41.505376 -11.886081 -37.691368 33.020395 25.776391 0.000000 0.000000 0.000000 7.125000 0.000000 0.000000 -9.695287 61.114689 3.826147
13.401022 15.963579 1.297021 91.084920 -89.444302 -92.641619 0.000000 0.000000 0.000000 -10.750024 -0.502828 -14.961045 4.809955 13.166574 39.995138 2.625470 6.077062 -33.207314 3.202575 -11.015980 -32.333706 0.000000 0.000000 0.000000 12.476668 8.055221 -11.408939 -5.480081 -13.904881 42.857583 -1.887911 -8.961129 -30.475413 -0.016637 0.832570 -2.288168 0.334087 0.323680 -9.829633 -1.559163 0.509247 3.228144 -1.760555 0.311292 8.984818 -1.711392 -0.917278 3.445211 4.648782 -2.044187 12.405415 1.781566 -1.080146 3.492228 0.000000 0.000000 0.000000 9.077716 -5.135251 -44.404789 29.187058 -40.186349 10.881230 31.720540 1.908083 24.883195 0.000000 0.000000 0.000000 -7.125000 0.000000 0.000000 1.313206 1.383513 1.281454 0.000000 0.000000 0.000000 -4.388532 -5.054152 45.290800 -30.726065 -41.507661 -11.887837 -37.634926 33.076548 25.956474 0.000000 0.000000 0.000000 7.125000 0.000000 0.000000 -9.603236 61.304925 3.832727
